<?xml version="1.0" standalone="no"?>
<!DOCTYPE svg PUBLIC "-//W3C//DTD SVG 20010904//EN"
 "http://www.w3.org/TR/2001/REC-SVG-20010904/DTD/svg10.dtd">
<svg version="1.0" xmlns="http://www.w3.org/2000/svg"
 width="128.000000pt" height="128.000000pt" viewBox="0 0 128.000000 128.000000"
 preserveAspectRatio="xMidYMid meet">

<g transform="translate(0.000000,128.000000) scale(0.100000,-0.100000)"
fill="#000000" stroke="none">
<path d="M25 1255 l-25 -24 0 -591 0 -591 25 -24 24 -25 591 0 591 0 24 25 25
24 0 591 0 591 -25 24 -24 25 -591 0 -591 0 -24 -25z m1088 -506 l37 -10 0
-69 c0 -39 -2 -70 -3 -70 -2 0 -19 8 -38 17 -19 10 -64 19 -104 21 -61 3 -73
1 -92 -18 -44 -41 -20 -74 91 -125 128 -58 166 -105 166 -203 0 -73 -26 -116
-90 -152 -38 -20 -61 -25 -145 -28 -64 -2 -116 2 -145 10 l-45 14 -3 76 -3 75
57 -28 c73 -37 172 -41 204 -9 42 42 17 74 -105 134 -127 62 -155 97 -155 197
0 82 40 134 129 165 44 16 192 18 244 3z m-423 -59 l0 -60 -90 0 -90 0 0 -255
0 -255 -75 0 -75 0 0 255 0 255 -90 0 -90 0 0 60 0 60 255 0 255 0 0 -60z"/>
</g>
</svg>
